<?xml version="1.0" encoding="utf-8"?>
<!-- Generator: Adobe Illustrator 25.1.0, SVG Export Plug-In . SVG Version: 6.00 Build 0)  -->
<svg version="1.1" id="Layer_1" xmlns="http://www.w3.org/2000/svg" xmlns:xlink="http://www.w3.org/1999/xlink" x="0px" y="0px"
	 viewBox="0 0 3096 1656" style="enable-background:new 0 0 3096 1656;" xml:space="preserve">
<style type="text/css">
	.st0{
	fill:none;
	stroke:#6f4d32;
	opacity: 0.10;
	stroke-width:14;
	stroke-linecap:round;
	stroke-linejoin:round;
	stroke-miterlimit:10;}
	
</style>
<g>
	<g id="pan">
		<path class="st0" d="M2797.58,520.12c-8.19,33.36-36.01,86.09-60.16,86.05c-82.27-0.14-167.81-0.14-250.08,0
			c-24.15,0.04-55.44-52.69-63.63-86.05H2797.58z"/>
		<path class="st0" d="M3015.7,547.63c-85.01,0.68-132.99-1.47-225.08-0.25l-15.65,25.56c97.68-1.3,145.73,1.2,240.99,0.09
			c4.49-0.05,8.64-2.39,10.95-6.16l0,0C3032.13,558.36,3025.82,547.55,3015.7,547.63z"/>
	</g>
	<g id="rolling_pin">
		<path class="st0" d="M1629.38,563.15L1629.38,563.15c0-6.01,4.87-10.89,10.89-10.89h70.69c6.01,0,10.89,4.87,10.89,10.89l0,0
			c0,6.01-4.87,10.89-10.89,10.89h-70.69C1634.26,574.03,1629.38,569.16,1629.38,563.15z"/>
		<path class="st0" d="M2205.91,563.15L2205.91,563.15c0-6.01,4.87-10.89,10.89-10.89h70.69c6.01,0,10.89,4.87,10.89,10.89l0,0
			c0,6.01-4.87,10.89-10.89,10.89h-70.69C2210.79,574.03,2205.91,569.16,2205.91,563.15z"/>
		<path class="st0" d="M1721.85,574.1v-21.91c0-15.07,12.21-27.28,27.28-27.28h429.5c15.07,0,27.28,12.21,27.28,27.28v21.91
			c0,15.07-12.21,27.28-27.28,27.28h-429.5C1734.06,601.38,1721.85,589.17,1721.85,574.1z"/>
	</g>
	<g id="ladel">
		<path class="st0" d="M2132.17,1013.85c0,40.1-33.15,72.6-74.04,72.6s-74.04-32.5-74.04-72.6H2132.17z"/>
		<path class="st0" d="M2132.17,1013.85l26.93-214.09c0-25.17,21.89-45.58,48.9-45.58s48.9,20.41,48.9,45.58"/>
	</g>
	<g id="spatula_with_slots">
		<path class="st0" d="M2546.01,819.54V784.8c0-16.91,13.71-30.61,30.61-30.61h65.83c16.91,0,30.61,13.71,30.61,30.61v34.74
			c0,35.09-28.44,63.53-63.53,63.53h0C2574.45,883.08,2546.01,854.63,2546.01,819.54z"/>
		<path class="st0" d="M2598.08,1075V883.08h22.91V1075c0,6.33-5.13,11.46-11.46,11.46h0
			C2603.21,1086.46,2598.08,1081.33,2598.08,1075z"/>
		<g>
			<line class="st0" x1="2609.54" y1="785.88" x2="2609.54" y2="844.7"/>
			<line class="st0" x1="2576.68" y1="785.88" x2="2576.68" y2="844.7"/>
			<line class="st0" x1="2642.4" y1="786.38" x2="2642.4" y2="845.21"/>
		</g>
	</g>
	<g id="spatula">
		<path class="st0" d="M1651.01,1075.28V888h22.36v187.28c0,6.17-5,11.18-11.18,11.18l0,0
			C1656.01,1086.46,1651.01,1081.45,1651.01,1075.28z"/>
		<path class="st0" d="M1629.38,879.07v-65.99c0-32.53,26.37-58.89,58.89-58.89l0,0c3.71,0,6.71,3,6.71,6.71v120.24
			c0,3.79-3.07,6.86-6.86,6.86h-49.82C1633.38,888,1629.38,884,1629.38,879.07z"/>
	</g>
	<g id="knife">
		<path class="st0" d="M3006.44,1075.28V971.74h22.36v103.53c0,6.17-5,11.18-11.18,11.18l0,0
			C3011.44,1086.46,3006.44,1081.45,3006.44,1075.28z"/>
		<path class="st0" d="M2963.19,964.64c0,0-13.75-210.45,60.15-210.45h0c3.01,0,5.45,2.39,5.45,5.34v206.75
			c0,3.02-2.49,5.46-5.57,5.46h-52.78C2966.43,971.74,2963.19,968.56,2963.19,964.64z"/>
	</g>
	<g id="grater">
		<path class="st0" d="M1862.82,358.87l-68.55-247.39c-0.87-5.13-4.58-8.81-8.9-8.81l-91.67-0.21c-4.31,0-8.03,3.68-8.9,8.81
			l-63.65,247.6c-1.15,6.84,3.15,13.24,8.9,13.24h223.86C1859.67,372.1,1863.97,365.7,1862.82,358.87z"/>
		<g>
			<g>
				<line class="st0" x1="1710.55" y1="137.6" x2="1709.99" y2="157.14"/>
				<line class="st0" x1="1742.28" y1="137.6" x2="1741.71" y2="157.14"/>
				<line class="st0" x1="1774" y1="137.6" x2="1773.43" y2="157.14"/>
			</g>
			<g>
				<line class="st0" x1="1694.85" y1="197.54" x2="1694.28" y2="217.08"/>
				<line class="st0" x1="1726.47" y1="197.54" x2="1725.9" y2="217.08"/>
				<line class="st0" x1="1758.09" y1="197.54" x2="1757.52" y2="217.08"/>
				<line class="st0" x1="1789.7" y1="197.54" x2="1789.14" y2="217.08"/>
			</g>
			<g>
				<line class="st0" x1="1678.51" y1="257.48" x2="1677.94" y2="277.02"/>
				<line class="st0" x1="1710.39" y1="257.48" x2="1709.83" y2="277.02"/>
				<line class="st0" x1="1742.28" y1="257.48" x2="1741.71" y2="277.02"/>
				<line class="st0" x1="1774.16" y1="257.48" x2="1773.6" y2="277.02"/>
				<line class="st0" x1="1806.05" y1="257.48" x2="1805.48" y2="277.02"/>
			</g>
			<g>
				<line class="st0" x1="1662.64" y1="317.41" x2="1662.07" y2="336.95"/>
				<line class="st0" x1="1694.49" y1="317.41" x2="1693.93" y2="336.95"/>
				<line class="st0" x1="1726.35" y1="317.41" x2="1725.78" y2="336.95"/>
				<line class="st0" x1="1758.2" y1="317.41" x2="1757.64" y2="336.95"/>
				<line class="st0" x1="1790.06" y1="317.41" x2="1789.49" y2="336.95"/>
				<line class="st0" x1="1821.92" y1="317.41" x2="1821.35" y2="336.95"/>
			</g>
		</g>
		<path class="st0" d="M1709.24,91.3c0-17.74,14.66-32.12,32.75-32.12s32.75,14.38,32.75,32.12"/>
	</g>
	<g id="colander">
		<path class="st0" d="M2492.67,85.94c0,88.28,51.97,164.66,127.54,201.32c30.56,14.83,64.99,23.16,101.39,23.16
			c36.41,0,70.83-8.33,101.39-23.16c75.57-36.67,127.54-113.04,127.54-201.32H2492.67z"/>
		<path class="st0" d="M2617.06,345.35h209.08c12.14,0,20.04-12.53,14.62-23.19l-17.77-34.9c-30.56,14.83-64.99,23.16-101.39,23.16
			c-36.41,0-70.83-8.33-101.39-23.16l-17.77,34.9C2597.01,332.82,2604.92,345.35,2617.06,345.35z"/>
		<ellipse class="st0" cx="2895.27" cy="167.31" rx="12.1" ry="11.87"/>
		<ellipse class="st0" cx="2837.38" cy="167.31" rx="12.1" ry="11.87"/>
		<ellipse class="st0" cx="2779.49" cy="167.31" rx="12.1" ry="11.87"/>
		<ellipse class="st0" cx="2721.6" cy="167.31" rx="12.1" ry="11.87"/>
		<ellipse class="st0" cx="2663.71" cy="167.31" rx="12.1" ry="11.87"/>
		<ellipse class="st0" cx="2605.82" cy="167.31" rx="12.1" ry="11.87"/>
		<ellipse class="st0" cx="2861.58" cy="214.78" rx="12.1" ry="11.87"/>
		<ellipse class="st0" cx="2749.6" cy="214.78" rx="12.1" ry="11.87"/>
		<ellipse class="st0" cx="2693.6" cy="214.78" rx="12.1" ry="11.87"/>
		<ellipse class="st0" cx="2637.61" cy="214.78" rx="12.1" ry="11.87"/>
		<ellipse class="st0" cx="2805.59" cy="214.78" rx="12.1" ry="11.87"/>
		<ellipse class="st0" cx="2775.7" cy="266.2" rx="12.1" ry="11.87"/>
		<ellipse class="st0" cx="2719.7" cy="266.2" rx="12.1" ry="11.87"/>
		<ellipse class="st0" cx="2663.71" cy="266.2" rx="12.1" ry="11.87"/>
		<ellipse class="st0" cx="2581.62" cy="214.78" rx="12.1" ry="11.87"/>
		<ellipse class="st0" cx="2547.93" cy="167.31" rx="12.1" ry="11.87"/>
		<path class="st0" d="M2952.74,109.85c17.25-3.12,34.5-6.24,51.74-9.36c11.05-2,22.89,6.54,24.23,17.48s-14.81,21.66-26.03,22.29
			c-22.93,1.29-35.95,3.9-58.88,5.18"/>
		<path class="st0" d="M2489.12,109.85c-17.25-3.12-34.5-6.24-51.74-9.36c-11.05-2-22.89,6.54-24.23,17.48
			c-1.34,10.94,14.81,21.66,26.03,22.29c22.93,1.29,35.95,3.9,58.88,5.18"/>
	</g>
	<g id="measuring_cup">
		<path class="st0" d="M2064.41,285.36l-39.35-143.97c-1.23-4.51,2.29-8.91,7.05-8.81l143.09,3c3.43,0.07,6.17,2.82,6.17,6.18V280.7
			c0,9.95-8.22,18.01-18.37,18.01h-80.85C2073.84,298.71,2066.57,293.24,2064.41,285.36z"/>
		<path class="st0" d="M2181.37,159.95c38.6,0,69.89-13.07,69.89,111.77"/>
		<g>
			<line class="st0" x1="2041.76" y1="175.22" x2="2088.75" y2="176.22"/>
			<line class="st0" x1="2052.03" y1="214.64" x2="2099.02" y2="215.64"/>
			<line class="st0" x1="2063.31" y1="255.06" x2="2110.3" y2="256.06"/>
		</g>
	</g>
	<g id="pot">
		<path class="st0" d="M1698.12,1381.83c2.9,58.15,5.79,116.31,8.69,174.46c1.1,22.08,21.08,41.69,43.6,42.79
			c78.97-0.53,163.03,0.53,242,0c22.52-1.1,42.5-20.71,43.6-42.79c2.9-58.15,5.79-116.31,8.69-174.46"/>
		<path class="st0" d="M2049.59,1381.83c14.33,0.16,26.48-11.21,27.75-23.27s-6.46-23.87-17.32-31.77s-24.55-12.45-38.22-16.08
			c-48.65-12.94-99.46-19.94-150.44-21h0.11c-50.98,1.06-101.79,8.05-150.44,21c-13.67,3.64-27.35,8.19-38.22,16.08
			s-18.6,19.71-17.32,31.77s13.42,23.43,27.75,23.27C1766.05,1381.01,1976.78,1381.01,2049.59,1381.83z"/>
		<path class="st0" d="M1820.01,1288.27c-1.3-18.52,8.78-37.38,25.05-46.88c16.27-9.5,37.98-9.19,53.97,0.75
			s25.51,29.08,23.68,47.56"/>
		<path class="st0" d="M2046.01,1456.27c19.46-5.95,38.93-11.91,58.39-17.86c5.76-1.76,9.76-7.92,8.94-13.78
			c-0.81-5.87-6.34-10.75-12.37-10.94c-18.75-0.59-37.51-1.18-56.26-1.77"/>
		<path class="st0" d="M1696.82,1456.27c-19.46-5.95-38.93-11.91-58.39-17.86c-5.76-1.76-9.76-7.92-8.94-13.78
			c0.81-5.87,6.34-10.75,12.37-10.94c18.75-0.59,37.51-1.18,56.26-1.77"/>
	</g>
	<g id="cutting_board">
		<ellipse class="st0" cx="2460.05" cy="1416.85" rx="5.71" ry="4.29"/>
		<path class="st0" d="M3028.79,1527.14v-220.57c0-33.75-27.91-61.12-62.33-61.12h-285.45c-34.42,0-62.33,27.37-62.33,61.12v75
			c0-0.18-0.14-0.32-0.32-0.32l-181.2,0c-10.02,0-19.1,3.99-25.67,10.43c-6.58,6.44-10.64,15.34-10.64,25.17
			c0,19.66,16.26,35.6,36.3,35.6h181.52v74.69c0,33.75,27.91,61.12,62.33,61.12h285.45
			C3000.88,1588.26,3028.79,1560.9,3028.79,1527.14z M2454.34,1416.85c0-2.37,2.55-4.29,5.71-4.29s5.71,1.92,5.71,4.29
			c0,2.37-2.55,4.29-5.71,4.29C2456.9,1421.14,2454.34,1419.22,2454.34,1416.85z"/>
		<ellipse class="st0" cx="2460.05" cy="1416.85" rx="5.71" ry="4.29"/>
	</g>
	<g id="timer">
		<path class="st0" d="M2172.44,1453.84v-73.97c0-25.45,20.63-46.08,46.08-46.08h77.26c25.45,0,46.08,20.63,46.08,46.08v73.97
			c0,25.45-20.63,46.08-46.08,46.08h-77.26C2193.07,1499.92,2172.44,1479.29,2172.44,1453.84z"/>
		<ellipse class="st0" cx="2257.15" cy="1416.85" rx="48.41" ry="47.47"/>
		<line class="st0" x1="2274.79" y1="1395.91" x2="2257.15" y2="1416.85"/>
		<g>
			<ellipse class="st0" cx="2257.15" cy="1351.72" rx="0.12" ry="0.12"/>
			<ellipse class="st0" cx="2257.15" cy="1481.99" rx="0.12" ry="0.12"/>
			<ellipse class="st0" cx="2323.71" cy="1416.85" rx="0.12" ry="0.12"/>
			<ellipse class="st0" cx="2190.59" cy="1416.85" rx="0.12" ry="0.12"/>
		</g>
	</g>
</g>
<g>
	<g id="pan_1_">
		<path class="st0" d="M1101.16,1049.83c8.19,33.36,36.01,86.09,60.16,86.05c82.27-0.14,167.81-0.14,250.08,0
			c24.15,0.04,55.44-52.69,63.63-86.05H1101.16z"/>
		<path class="st0" d="M883.03,1077.34c85.01,0.68,132.99-1.47,225.08-0.25l15.65,25.56c-97.68-1.3-145.73,1.2-240.99,0.09
			c-4.49-0.05-8.64-2.39-10.95-6.16l0,0C866.6,1088.07,872.91,1077.26,883.03,1077.34z"/>
	</g>
	<g id="rolling_pin_1_">
		<path class="st0" d="M75.61,1092.85L75.61,1092.85c0-6.01,4.87-10.89,10.89-10.89h70.69c6.01,0,10.89,4.87,10.89,10.89l0,0
			c0,6.01-4.87,10.89-10.89,10.89H86.5C80.49,1103.74,75.61,1098.87,75.61,1092.85z"/>
		<path class="st0" d="M652.14,1092.85L652.14,1092.85c0-6.01,4.87-10.89,10.89-10.89h70.69c6.01,0,10.89,4.87,10.89,10.89l0,0
			c0,6.01-4.87,10.89-10.89,10.89h-70.69C657.02,1103.74,652.14,1098.87,652.14,1092.85z"/>
		<path class="st0" d="M168.08,1103.81v-21.91c0-15.07,12.21-27.28,27.28-27.28h429.5c15.07,0,27.28,12.21,27.28,27.28v21.91
			c0,15.07-12.21,27.28-27.28,27.28h-429.5C180.29,1131.09,168.08,1118.88,168.08,1103.81z"/>
	</g>
	<g id="ladel_1_">
		<path class="st0" d="M555.05,829.21c0,40.1,33.15,72.6,74.04,72.6s74.04-32.5,74.04-72.6H555.05z"/>
		<path class="st0" d="M555.05,829.21l-26.93-214.09c0-25.17-21.89-45.58-48.9-45.58s-48.9,20.41-48.9,45.58"/>
	</g>
	<g id="spatula_with_slots_1_">
		<path class="st0" d="M1119.3,634.9v-34.74c0-16.91-13.71-30.61-30.61-30.61h-65.83c-16.91,0-30.61,13.71-30.61,30.61v34.74
			c0,35.09,28.44,63.53,63.53,63.53h0C1090.86,698.43,1119.3,669.99,1119.3,634.9z"/>
		<path class="st0" d="M1067.22,890.36V698.43h-22.91v191.92c0,6.33,5.13,11.46,11.46,11.46l0,0
			C1062.1,901.81,1067.22,896.68,1067.22,890.36z"/>
		<g>
			<line class="st0" x1="1055.77" y1="601.23" x2="1055.77" y2="660.06"/>
			<line class="st0" x1="1088.63" y1="601.23" x2="1088.63" y2="660.06"/>
			<line class="st0" x1="1022.91" y1="601.74" x2="1022.91" y2="660.56"/>
		</g>
	</g>
	<g id="spatula_1_">
		<path class="st0" d="M119.59,890.63V703.35H97.24v187.28c0,6.17,5,11.18,11.18,11.18h0C114.59,901.81,119.59,896.81,119.59,890.63
			z"/>
		<path class="st0" d="M141.22,694.43v-65.99c0-32.53-26.37-58.89-58.89-58.89h0c-3.71,0-6.71,3-6.71,6.71v120.24
			c0,3.79,3.07,6.86,6.86,6.86h49.82C137.22,703.35,141.22,699.36,141.22,694.43z"/>
	</g>
	<g id="knife_1_">
		<path class="st0" d="M1430.76,890.63V787.1h-22.36v103.53c0,6.17,5,11.18,11.18,11.18l0,0
			C1425.76,901.81,1430.76,896.81,1430.76,890.63z"/>
		<path class="st0" d="M1474.01,779.99c0,0,13.75-210.45-60.15-210.45h0c-3.01,0-5.45,2.39-5.45,5.34v206.75
			c0,3.02,2.49,5.46,5.57,5.46h52.78C1470.77,787.1,1474.01,783.92,1474.01,779.99z"/>
	</g>
	<g id="grater_1_">
		<path class="st0" d="M309.05,1583.58l-68.55-247.39c-0.87-5.13-4.58-8.81-8.9-8.81l-91.67-0.21c-4.31,0-8.03,3.68-8.9,8.81
			l-63.65,247.6c-1.15,6.84,3.15,13.24,8.9,13.24h223.86C305.9,1596.82,310.2,1590.42,309.05,1583.58z"/>
		<g>
			<g>
				<line class="st0" x1="156.78" y1="1362.31" x2="156.22" y2="1381.85"/>
				<line class="st0" x1="188.51" y1="1362.31" x2="187.94" y2="1381.85"/>
				<line class="st0" x1="220.23" y1="1362.31" x2="219.66" y2="1381.85"/>
			</g>
			<g>
				<line class="st0" x1="141.08" y1="1422.25" x2="140.52" y2="1441.79"/>
				<line class="st0" x1="172.7" y1="1422.25" x2="172.13" y2="1441.79"/>
				<line class="st0" x1="204.32" y1="1422.25" x2="203.75" y2="1441.79"/>
				<line class="st0" x1="235.93" y1="1422.25" x2="235.37" y2="1441.79"/>
			</g>
			<g>
				<line class="st0" x1="124.74" y1="1482.19" x2="124.17" y2="1501.73"/>
				<line class="st0" x1="156.62" y1="1482.19" x2="156.06" y2="1501.73"/>
				<line class="st0" x1="188.51" y1="1482.19" x2="187.94" y2="1501.73"/>
				<line class="st0" x1="220.39" y1="1482.19" x2="219.83" y2="1501.73"/>
				<line class="st0" x1="252.28" y1="1482.19" x2="251.71" y2="1501.73"/>
			</g>
			<g>
				<line class="st0" x1="108.87" y1="1542.13" x2="108.3" y2="1561.67"/>
				<line class="st0" x1="140.72" y1="1542.13" x2="140.16" y2="1561.67"/>
				<line class="st0" x1="172.58" y1="1542.13" x2="172.01" y2="1561.67"/>
				<line class="st0" x1="204.43" y1="1542.13" x2="203.87" y2="1561.67"/>
				<line class="st0" x1="236.29" y1="1542.13" x2="235.72" y2="1561.67"/>
				<line class="st0" x1="268.15" y1="1542.13" x2="267.58" y2="1561.67"/>
			</g>
		</g>
		<path class="st0" d="M155.47,1316.01c0-17.74,14.66-32.12,32.75-32.12s32.75,14.38,32.75,32.12"/>
	</g>
	<g id="colander_1_">
		<path class="st0" d="M938.9,1310.65c0,88.28,51.97,164.66,127.54,201.32c30.56,14.83,64.99,23.16,101.39,23.16
			c36.41,0,70.83-8.33,101.39-23.16c75.57-36.67,127.54-113.04,127.54-201.32H938.9z"/>
		<path class="st0" d="M1063.29,1570.06h209.08c12.14,0,20.04-12.53,14.62-23.19l-17.77-34.9c-30.56,14.83-64.99,23.16-101.39,23.16
			c-36.41,0-70.83-8.33-101.39-23.16l-17.77,34.9C1043.24,1557.53,1051.15,1570.06,1063.29,1570.06z"/>
		<ellipse class="st0" cx="1341.5" cy="1392.03" rx="12.1" ry="11.87"/>
		<ellipse class="st0" cx="1283.61" cy="1392.03" rx="12.1" ry="11.87"/>
		<ellipse class="st0" cx="1225.72" cy="1392.03" rx="12.1" ry="11.87"/>
		<ellipse class="st0" cx="1167.83" cy="1392.03" rx="12.1" ry="11.87"/>
		<ellipse class="st0" cx="1109.94" cy="1392.03" rx="12.1" ry="11.87"/>
		<ellipse class="st0" cx="1052.05" cy="1392.03" rx="12.1" ry="11.87"/>
		<ellipse class="st0" cx="1307.81" cy="1439.5" rx="12.1" ry="11.87"/>
		<ellipse class="st0" cx="1195.83" cy="1439.5" rx="12.1" ry="11.87"/>
		<ellipse class="st0" cx="1139.83" cy="1439.5" rx="12.1" ry="11.87"/>
		<ellipse class="st0" cx="1083.84" cy="1439.5" rx="12.1" ry="11.87"/>
		<ellipse class="st0" cx="1251.82" cy="1439.5" rx="12.1" ry="11.87"/>
		<ellipse class="st0" cx="1221.93" cy="1490.92" rx="12.1" ry="11.87"/>
		<ellipse class="st0" cx="1165.93" cy="1490.92" rx="12.1" ry="11.87"/>
		<ellipse class="st0" cx="1109.94" cy="1490.92" rx="12.1" ry="11.87"/>
		<ellipse class="st0" cx="1027.85" cy="1439.5" rx="12.1" ry="11.87"/>
		<ellipse class="st0" cx="994.16" cy="1392.03" rx="12.1" ry="11.87"/>
		<path class="st0" d="M1398.97,1334.56c17.25-3.12,34.5-6.24,51.74-9.36c11.05-2,22.89,6.54,24.23,17.48
			c1.34,10.94-14.81,21.66-26.03,22.29c-22.93,1.29-35.95,3.9-58.88,5.18"/>
		<path class="st0" d="M935.35,1334.56c-17.25-3.12-34.5-6.24-51.74-9.36c-11.05-2-22.89,6.54-24.23,17.48
			c-1.34,10.94,14.81,21.66,26.03,22.29c22.93,1.29,35.95,3.9,58.88,5.18"/>
	</g>
	<g id="measuring_cup_1_">
		<path class="st0" d="M657.89,1510.08l39.35-143.97c1.23-4.51-2.29-8.91-7.05-8.81l-143.09,3c-3.43,0.07-6.17,2.82-6.17,6.18
			v138.94c0,9.95,8.22,18.01,18.37,18.01h80.85C648.46,1523.42,655.74,1517.95,657.89,1510.08z"/>
		<path class="st0" d="M540.93,1384.67c-38.6,0-69.89-13.07-69.89,111.77"/>
		<g>
			<line class="st0" x1="680.54" y1="1399.94" x2="633.55" y2="1400.94"/>
			<line class="st0" x1="670.28" y1="1439.36" x2="623.29" y2="1440.36"/>
			<line class="st0" x1="658.99" y1="1479.78" x2="612" y2="1480.78"/>
		</g>
	</g>
	<g id="pot_1_">
		<path class="st0" d="M144.35,204.12c2.9,58.15,5.79,116.31,8.69,174.46c1.1,22.08,21.08,41.69,43.6,42.79
			c78.97-0.53,163.03,0.53,242,0c22.52-1.1,42.5-20.71,43.6-42.79c2.9-58.15,5.79-116.31,8.69-174.46"/>
		<path class="st0" d="M495.82,204.12c14.33,0.16,26.48-11.21,27.75-23.27c1.28-12.07-6.46-23.87-17.32-31.77
			c-10.87-7.9-24.55-12.45-38.22-16.08c-48.65-12.94-99.46-19.94-150.44-21h0.11c-50.98,1.06-101.79,8.05-150.44,21
			c-13.67,3.64-27.35,8.19-38.22,16.08c-10.87,7.9-18.6,19.71-17.32,31.77c1.28,12.07,13.42,23.43,27.75,23.27
			C212.28,203.31,423.01,203.31,495.82,204.12z"/>
		<path class="st0" d="M266.24,110.56c-1.3-18.52,8.78-37.38,25.05-46.88c16.27-9.5,37.98-9.19,53.97,0.75
			c15.99,9.95,25.51,29.08,23.68,47.56"/>
		<path class="st0" d="M492.24,278.56c19.46-5.95,38.93-11.91,58.39-17.86c5.76-1.76,9.76-7.92,8.94-13.78
			c-0.81-5.87-6.34-10.75-12.37-10.94c-18.75-0.59-37.51-1.18-56.26-1.77"/>
		<path class="st0" d="M143.05,278.56c-19.46-5.95-38.93-11.91-58.39-17.86c-5.76-1.76-9.76-7.92-8.94-13.78
			c0.81-5.87,6.34-10.75,12.37-10.94c18.75-0.59,37.51-1.18,56.26-1.77"/>
	</g>
	<g id="cutting_board_1_">
		<ellipse class="st0" cx="1415.83" cy="239.15" rx="5.71" ry="4.29"/>
		<path class="st0" d="M847.08,349.43V128.86c0-33.75,27.91-61.12,62.33-61.12l285.45,0c34.42,0,62.33,27.37,62.33,61.12v75
			c0-0.18,0.14-0.32,0.32-0.32h181.2c10.02,0,19.1,3.99,25.67,10.43c6.58,6.44,10.64,15.34,10.64,25.17
			c0,19.66-16.26,35.6-36.3,35.6h-181.52v74.69c0,33.75-27.91,61.12-62.33,61.12H909.41C874.99,410.55,847.08,383.19,847.08,349.43z
			 M1421.53,239.15c0-2.37-2.55-4.29-5.71-4.29s-5.71,1.92-5.71,4.29c0,2.37,2.55,4.29,5.71,4.29S1421.53,241.51,1421.53,239.15z"/>
		<ellipse class="st0" cx="1415.83" cy="239.15" rx="5.71" ry="4.29"/>
	</g>
	<g id="timer_1_">
		<path class="st0" d="M788.09,276.13v-73.97c0-25.45-20.63-46.08-46.08-46.08h-77.26c-25.45,0-46.08,20.63-46.08,46.08v73.97
			c0,25.45,20.63,46.08,46.08,46.08h77.26C767.46,322.21,788.09,301.58,788.09,276.13z"/>
		<ellipse class="st0" cx="703.38" cy="239.15" rx="48.41" ry="47.47"/>
		<line class="st0" x1="685.74" y1="218.21" x2="703.38" y2="239.15"/>
		<g>
			<ellipse class="st0" cx="703.38" cy="174.01" rx="0.12" ry="0.12"/>
			<ellipse class="st0" cx="703.38" cy="304.28" rx="0.12" ry="0.12"/>
			<ellipse class="st0" cx="636.82" cy="239.15" rx="0.12" ry="0.12"/>
			<ellipse class="st0" cx="769.94" cy="239.15" rx="0.12" ry="0.12"/>
		</g>
	</g>
</g>
</svg>
